<mxfile host="app.diagrams.net" modified="2023-12-06T02:28:29.625Z" agent="Mozilla/5.0 (Windows NT 10.0; Win64; x64) AppleWebKit/537.36 (KHTML, like Gecko) Chrome/119.0.0.0 Safari/537.36" etag="JmB7Gciv92OJqJp43Quf" version="22.1.5" type="github" pages="3">
  <diagram name="Layer Architecture" id="UCrYf236vS9NTEXYpIBE">
    <mxGraphModel dx="2049" dy="1261" grid="1" gridSize="10" guides="1" tooltips="1" connect="1" arrows="1" fold="1" page="1" pageScale="1" pageWidth="1169" pageHeight="827" math="0" shadow="0">
      <root>
        <mxCell id="0" />
        <mxCell id="1" parent="0" />
        <mxCell id="ccGiKAOtUAh71gRQas-K-1" style="edgeStyle=orthogonalEdgeStyle;rounded=0;orthogonalLoop=1;jettySize=auto;html=1;exitX=1;exitY=0.25;exitDx=0;exitDy=0;entryX=0;entryY=0.25;entryDx=0;entryDy=0;" parent="1" source="3Y9ApGFQtoccB5MLMESt-1" target="3Y9ApGFQtoccB5MLMESt-2" edge="1">
          <mxGeometry relative="1" as="geometry" />
        </mxCell>
        <mxCell id="3Y9ApGFQtoccB5MLMESt-1" value="Controller" style="swimlane;horizontal=0;whiteSpace=wrap;html=1;" parent="1" vertex="1">
          <mxGeometry x="40" y="80" width="200" height="200" as="geometry" />
        </mxCell>
        <mxCell id="ccGiKAOtUAh71gRQas-K-2" style="edgeStyle=orthogonalEdgeStyle;rounded=0;orthogonalLoop=1;jettySize=auto;html=1;exitX=0;exitY=0.75;exitDx=0;exitDy=0;entryX=1;entryY=0.75;entryDx=0;entryDy=0;" parent="1" source="3Y9ApGFQtoccB5MLMESt-2" target="3Y9ApGFQtoccB5MLMESt-1" edge="1">
          <mxGeometry relative="1" as="geometry" />
        </mxCell>
        <mxCell id="ccGiKAOtUAh71gRQas-K-3" style="edgeStyle=orthogonalEdgeStyle;rounded=0;orthogonalLoop=1;jettySize=auto;html=1;exitX=1;exitY=0.25;exitDx=0;exitDy=0;entryX=0;entryY=0.25;entryDx=0;entryDy=0;" parent="1" source="3Y9ApGFQtoccB5MLMESt-2" target="3Y9ApGFQtoccB5MLMESt-3" edge="1">
          <mxGeometry relative="1" as="geometry" />
        </mxCell>
        <mxCell id="3Y9ApGFQtoccB5MLMESt-2" value="Service" style="swimlane;horizontal=0;whiteSpace=wrap;html=1;" parent="1" vertex="1">
          <mxGeometry x="360" y="80" width="240" height="200" as="geometry" />
        </mxCell>
        <mxCell id="ccGiKAOtUAh71gRQas-K-10" value="&amp;laquo;Annotation&amp;raquo;&lt;br/&gt;&lt;b&gt;Component&lt;/b&gt;" style="html=1;dropTarget=0;whiteSpace=wrap;" parent="3Y9ApGFQtoccB5MLMESt-2" vertex="1">
          <mxGeometry x="40" y="20" width="180" height="90" as="geometry" />
        </mxCell>
        <mxCell id="ccGiKAOtUAh71gRQas-K-11" value="" style="shape=module;jettyWidth=8;jettyHeight=4;" parent="ccGiKAOtUAh71gRQas-K-10" vertex="1">
          <mxGeometry x="1" width="20" height="20" relative="1" as="geometry">
            <mxPoint x="-27" y="7" as="offset" />
          </mxGeometry>
        </mxCell>
        <mxCell id="ccGiKAOtUAh71gRQas-K-4" style="edgeStyle=orthogonalEdgeStyle;rounded=0;orthogonalLoop=1;jettySize=auto;html=1;exitX=0;exitY=0.75;exitDx=0;exitDy=0;entryX=1;entryY=0.75;entryDx=0;entryDy=0;" parent="1" source="3Y9ApGFQtoccB5MLMESt-3" target="3Y9ApGFQtoccB5MLMESt-2" edge="1">
          <mxGeometry relative="1" as="geometry" />
        </mxCell>
        <mxCell id="3Y9ApGFQtoccB5MLMESt-3" value="Repository" style="swimlane;horizontal=0;whiteSpace=wrap;html=1;" parent="1" vertex="1">
          <mxGeometry x="680" y="80" width="200" height="200" as="geometry" />
        </mxCell>
        <mxCell id="3Y9ApGFQtoccB5MLMESt-4" value="&lt;h1&gt;HRIS Layer Acrhitecture&lt;/h1&gt;&lt;p&gt;Memuat dependency antar package dan class.&lt;/p&gt;" style="text;html=1;strokeColor=none;fillColor=none;spacing=5;spacingTop=-20;whiteSpace=wrap;overflow=hidden;rounded=0;" parent="1" vertex="1">
          <mxGeometry x="-120" y="-60" width="190" height="120" as="geometry" />
        </mxCell>
        <mxCell id="ccGiKAOtUAh71gRQas-K-6" style="edgeStyle=orthogonalEdgeStyle;rounded=0;orthogonalLoop=1;jettySize=auto;html=1;exitX=0;exitY=0;exitDx=0;exitDy=142.5;exitPerimeter=0;entryX=1;entryY=0.75;entryDx=0;entryDy=0;" parent="1" source="3Y9ApGFQtoccB5MLMESt-5" target="3Y9ApGFQtoccB5MLMESt-3" edge="1">
          <mxGeometry relative="1" as="geometry" />
        </mxCell>
        <mxCell id="3Y9ApGFQtoccB5MLMESt-5" value="hris" style="shape=cylinder3;whiteSpace=wrap;html=1;boundedLbl=1;backgroundOutline=1;size=15;" parent="1" vertex="1">
          <mxGeometry x="1000" y="80" width="170" height="200" as="geometry" />
        </mxCell>
        <mxCell id="ccGiKAOtUAh71gRQas-K-9" style="edgeStyle=orthogonalEdgeStyle;rounded=0;orthogonalLoop=1;jettySize=auto;html=1;exitX=0.875;exitY=0.5;exitDx=0;exitDy=0;exitPerimeter=0;" parent="1" source="3Y9ApGFQtoccB5MLMESt-6" edge="1">
          <mxGeometry relative="1" as="geometry">
            <mxPoint x="40" y="130" as="targetPoint" />
          </mxGeometry>
        </mxCell>
        <mxCell id="3Y9ApGFQtoccB5MLMESt-6" value="Frontend" style="ellipse;shape=cloud;whiteSpace=wrap;html=1;" parent="1" vertex="1">
          <mxGeometry x="-140" y="120" width="120" height="80" as="geometry" />
        </mxCell>
        <mxCell id="ccGiKAOtUAh71gRQas-K-5" style="edgeStyle=orthogonalEdgeStyle;rounded=0;orthogonalLoop=1;jettySize=auto;html=1;exitX=1;exitY=0.25;exitDx=0;exitDy=0;entryX=0;entryY=0;entryDx=0;entryDy=57.5;entryPerimeter=0;" parent="1" source="3Y9ApGFQtoccB5MLMESt-3" target="3Y9ApGFQtoccB5MLMESt-5" edge="1">
          <mxGeometry relative="1" as="geometry" />
        </mxCell>
        <mxCell id="ccGiKAOtUAh71gRQas-K-8" style="edgeStyle=orthogonalEdgeStyle;rounded=0;orthogonalLoop=1;jettySize=auto;html=1;exitX=0;exitY=0.75;exitDx=0;exitDy=0;entryX=0.8;entryY=0.8;entryDx=0;entryDy=0;entryPerimeter=0;" parent="1" source="3Y9ApGFQtoccB5MLMESt-1" target="3Y9ApGFQtoccB5MLMESt-6" edge="1">
          <mxGeometry relative="1" as="geometry" />
        </mxCell>
      </root>
    </mxGraphModel>
  </diagram>
  <diagram id="dTKKUcqOl04Ca_YgOmrZ" name="Controller">
    <mxGraphModel dx="880" dy="434" grid="1" gridSize="10" guides="1" tooltips="1" connect="1" arrows="1" fold="1" page="1" pageScale="1" pageWidth="1169" pageHeight="827" math="0" shadow="0">
      <root>
        <mxCell id="0" />
        <mxCell id="1" parent="0" />
      </root>
    </mxGraphModel>
  </diagram>
  <diagram id="y4phbJsGuVcRboIemOIT" name="Tables">
    <mxGraphModel dx="880" dy="434" grid="1" gridSize="10" guides="1" tooltips="1" connect="1" arrows="1" fold="1" page="1" pageScale="1" pageWidth="1169" pageHeight="827" math="0" shadow="0">
      <root>
        <mxCell id="0" />
        <mxCell id="1" parent="0" />
        <mxCell id="g5q6TM74w6CPrwSbScij-6" value="tbl_employee" style="swimlane;childLayout=stackLayout;horizontal=1;startSize=50;horizontalStack=0;rounded=1;fontSize=14;fontStyle=0;strokeWidth=2;resizeParent=0;resizeLast=1;shadow=0;dashed=0;align=center;arcSize=4;whiteSpace=wrap;html=1;" vertex="1" parent="1">
          <mxGeometry x="100" y="100" width="160" height="180" as="geometry" />
        </mxCell>
        <mxCell id="g5q6TM74w6CPrwSbScij-7" value="+ Id&lt;br&gt;+ firstName&lt;br&gt;+ lastName&lt;br&gt;+ password&lt;br&gt;+ email&lt;br&gt;+ hp&lt;br&gt;+ socialSecurityNumber&lt;br&gt;+ address" style="align=left;strokeColor=none;fillColor=none;spacingLeft=4;fontSize=12;verticalAlign=top;resizable=0;rotatable=0;part=1;html=1;" vertex="1" parent="g5q6TM74w6CPrwSbScij-6">
          <mxGeometry y="50" width="160" height="130" as="geometry" />
        </mxCell>
        <mxCell id="g5q6TM74w6CPrwSbScij-8" value="tbl_department" style="swimlane;childLayout=stackLayout;horizontal=1;startSize=50;horizontalStack=0;rounded=1;fontSize=14;fontStyle=0;strokeWidth=2;resizeParent=0;resizeLast=1;shadow=0;dashed=0;align=center;arcSize=4;whiteSpace=wrap;html=1;" vertex="1" parent="1">
          <mxGeometry x="300" y="100" width="160" height="120" as="geometry" />
        </mxCell>
        <mxCell id="g5q6TM74w6CPrwSbScij-9" value="+ Id&lt;br&gt;+ departmentName" style="align=left;strokeColor=none;fillColor=none;spacingLeft=4;fontSize=12;verticalAlign=top;resizable=0;rotatable=0;part=1;html=1;" vertex="1" parent="g5q6TM74w6CPrwSbScij-8">
          <mxGeometry y="50" width="160" height="70" as="geometry" />
        </mxCell>
      </root>
    </mxGraphModel>
  </diagram>
</mxfile>
